<svg xmlns="http://www.w3.org/2000/svg" version="1.1" xmlns:xlink="http://www.w3.org/1999/xlink" width="512" height="512" x="0" y="0" viewBox="0 0 24 24" style="enable-background:new 0 0 512 512" xml:space="preserve" class=""><g><path d="M19.5 0h-15A4.505 4.505 0 0 0 0 4.5v15C0 21.981 2.019 24 4.5 24h11.646c1.42 0 2.756-.553 3.761-1.558l2.536-2.536a5.285 5.285 0 0 0 1.558-3.761V4.5c0-2.481-2.019-4.5-4.5-4.5zM3 19.5v-15C3 3.673 3.673 3 4.5 3h15c.827 0 1.5.673 1.5 1.5V15h-3c-1.654 0-3 1.346-3 3v3H4.5c-.827 0-1.5-.673-1.5-1.5zm2-13a1.5 1.5 0 1 1 3.001.001A1.5 1.5 0 0 1 5 6.5zM8 12a1.5 1.5 0 1 1-3.001-.001A1.5 1.5 0 0 1 8 12zm0 5.5a1.5 1.5 0 1 1-3.001-.001A1.5 1.5 0 0 1 8 17.5z" fill="#000000" opacity="1" data-original="#000000" class=""></path></g></svg>