<svg xmlns="http://www.w3.org/2000/svg" version="1.1" xmlns:xlink="http://www.w3.org/1999/xlink" width="512" height="512" x="0" y="0" viewBox="0 0 66 66" style="enable-background:new 0 0 512 512" xml:space="preserve" class=""><g><path d="M60.99 58.46H5.01C2.8 58.46 1 56.66 1 54.45v-42.9c0-2.21 1.8-4.01 4.01-4.01h55.97c2.21 0 4.01 1.8 4.01 4.01v42.89a4.003 4.003 0 0 1-4 4.02zM5.01 9.04c-1.39 0-2.51 1.13-2.51 2.51v42.89c0 1.39 1.13 2.51 2.51 2.51h55.97c1.39 0 2.51-1.13 2.51-2.51V11.55c0-1.39-1.13-2.51-2.51-2.51z" fill="#000000" opacity="1" data-original="#000000" class=""></path><path d="M31.08 51.4h-4.7c-.41 0-.75-.34-.75-.75V40.63c0-.41.34-.75.75-.75h4.7c.41 0 .75.34.75.75v10.02c0 .41-.34.75-.75.75zm-3.95-1.5h3.2v-8.52h-3.2zM40.15 51.4h-4.7c-.41 0-.75-.34-.75-.75V32.18c0-.41.34-.75.75-.75h4.7c.41 0 .75.34.75.75v18.47c0 .41-.33.75-.75.75zm-3.94-1.5h3.2V32.93h-3.2zM49.23 51.4h-4.7c-.41 0-.75-.34-.75-.75v-8.67c0-.41.34-.75.75-.75h4.7c.41 0 .75.34.75.75v8.67c0 .41-.33.75-.75.75zm-3.94-1.5h3.2v-7.17h-3.2zM58.31 51.4h-4.7c-.41 0-.75-.34-.75-.75V31.76c0-.41.34-.75.75-.75h4.7c.41 0 .75.34.75.75v18.89c0 .41-.34.75-.75.75zm-3.95-1.5h3.2V32.51h-3.2zM28.73 38c-1.71 0-3.1-1.39-3.1-3.1s1.39-3.1 3.1-3.1 3.1 1.39 3.1 3.1-1.39 3.1-3.1 3.1zm0-4.69c-.88 0-1.6.72-1.6 1.6s.72 1.6 1.6 1.6 1.6-.72 1.6-1.6-.72-1.6-1.6-1.6zM37.81 27.16c-1.71 0-3.1-1.39-3.1-3.1s1.39-3.1 3.1-3.1 3.1 1.39 3.1 3.1-1.4 3.1-3.1 3.1zm0-4.7c-.88 0-1.6.72-1.6 1.6s.72 1.6 1.6 1.6 1.6-.72 1.6-1.6-.72-1.6-1.6-1.6zM46.88 38c-1.71 0-3.1-1.39-3.1-3.1s1.39-3.1 3.1-3.1 3.1 1.39 3.1 3.1-1.39 3.1-3.1 3.1zm0-4.69c-.88 0-1.6.72-1.6 1.6s.72 1.6 1.6 1.6 1.6-.72 1.6-1.6-.72-1.6-1.6-1.6zM55.96 27.16c-1.71 0-3.1-1.39-3.1-3.1s1.39-3.1 3.1-3.1 3.1 1.39 3.1 3.1-1.39 3.1-3.1 3.1zm0-4.7c-.88 0-1.6.72-1.6 1.6s.72 1.6 1.6 1.6 1.6-.72 1.6-1.6-.72-1.6-1.6-1.6z" fill="#000000" opacity="1" data-original="#000000" class=""></path><path d="M30.23 33.86c-.17 0-.34-.06-.48-.17a.748.748 0 0 1-.09-1.06l6.07-7.25c.27-.32.74-.36 1.06-.09s.36.74.09 1.06l-6.07 7.25a.8.8 0 0 1-.58.26zM48.38 33.86c-.17 0-.34-.06-.48-.17a.748.748 0 0 1-.09-1.06l6.06-7.25c.26-.32.74-.36 1.06-.09s.36.74.09 1.06l-6.06 7.25c-.15.17-.36.26-.58.26zM45.38 33.86c-.21 0-.43-.09-.58-.27l-6.06-7.25a.757.757 0 0 1 .09-1.06c.32-.27.79-.22 1.06.09l6.06 7.25a.757.757 0 0 1-.57 1.24zM36.3 15.49H7.69c-.41 0-.75-.34-.75-.75s.34-.75.75-.75H36.3c.41 0 .75.34.75.75s-.34.75-.75.75zM36.3 19.43H7.69c-.41 0-.75-.34-.75-.75s.34-.75.75-.75H36.3c.41 0 .75.34.75.75s-.34.75-.75.75zM30.23 23.38H7.69c-.41 0-.75-.34-.75-.75s.34-.75.75-.75h22.54c.41 0 .75.34.75.75s-.34.75-.75.75zM27.09 27.33H7.69c-.41 0-.75-.34-.75-.75s.34-.75.75-.75h19.4a.749.749 0 1 1 0 1.5zM27.09 31.28H7.69c-.41 0-.75-.34-.75-.75s.34-.75.75-.75h19.4a.749.749 0 1 1 0 1.5zM10.19 49.97c-.19 0-.37-.07-.51-.2a8.559 8.559 0 0 1-2.74-6.27c0-4.69 3.81-8.5 8.5-8.5.41 0 .75.34.75.75v7.75c0 .19-.07.37-.2.51l-5.25 5.72c-.13.15-.32.23-.52.24h-.03zm4.5-13.43c-3.51.38-6.25 3.35-6.25 6.96 0 1.73.61 3.35 1.73 4.63l4.52-4.92z" fill="#000000" opacity="1" data-original="#000000" class=""></path><path d="M15.44 52.01c-2.13 0-4.18-.8-5.76-2.25-.15-.13-.23-.32-.24-.52s.06-.39.2-.54l5.25-5.72c.26-.28.7-.32 1.01-.09l6.18 4.71c.33.25.39.72.14 1.05a8.454 8.454 0 0 1-6.78 3.36zm-4.17-2.87c1.21.89 2.66 1.37 4.17 1.37 1.96 0 3.78-.79 5.1-2.19l-5.01-3.81z" fill="#000000" opacity="1" data-original="#000000" class=""></path><path d="M21.62 48.96c-.16 0-.32-.05-.45-.15l-6.18-4.71a.739.739 0 0 1-.3-.6v-7.75c0-.41.34-.75.75-.75 4.69 0 8.51 3.81 8.51 8.5 0 1.88-.6 3.66-1.74 5.16-.12.16-.3.26-.5.29-.02.01-.06.01-.09.01zm-5.43-5.83 5.25 4a6.993 6.993 0 0 0 1.01-3.63c0-3.61-2.75-6.58-6.26-6.96z" fill="#000000" opacity="1" data-original="#000000" class=""></path></g></svg>