<svg xmlns="http://www.w3.org/2000/svg" version="1.1" xmlns:xlink="http://www.w3.org/1999/xlink" width="512" height="512" x="0" y="0" viewBox="0 0 100 100" style="enable-background:new 0 0 512 512" xml:space="preserve" class=""><g><path d="M81.783 15.561H18.317c-4.205 0-8.209 1.702-11.212 4.605C4.102 23.169 2.5 27.173 2.5 31.378v37.244c0 4.205 1.702 8.209 4.605 11.212 3.003 3.003 7.007 4.605 11.212 4.605h63.366c4.205 0 8.209-1.702 11.212-4.605 3.003-3.003 4.605-7.007 4.605-11.212V31.378c0-4.205-1.702-8.209-4.605-11.212s-6.907-4.605-11.112-4.605zm-50.55 13.817c2.363 0 4.613.9 6.3 2.587 1.688 1.688 2.588 3.938 2.588 6.3 0 2.362-.9 4.612-2.588 6.3-1.687 1.687-3.937 2.587-6.3 2.587s-4.612-.9-6.3-2.587c-1.687-1.688-2.587-3.938-2.587-6.3s.9-4.612 2.588-6.3c1.687-1.687 3.937-2.587 6.3-2.587zM47.05 66.317c0 1.401-.6 2.702-1.502 3.704-1 1-2.302 1.501-3.703 1.501H20.622c-1.401 0-2.703-.6-3.704-1.501-1-1.002-1.501-2.303-1.501-3.704V61.01c0-2.803 1.1-5.506 3.103-7.508a10.607 10.607 0 0 1 7.508-3.103h10.611c2.803 0 5.506 1.101 7.508 3.103a10.607 10.607 0 0 1 3.103 7.508zm26.336-4.511H58.264a2.585 2.585 0 0 1-2.603-2.603 2.585 2.585 0 0 1 2.603-2.603h15.122a2.585 2.585 0 0 1 2.603 2.603 2.585 2.585 0 0 1-2.603 2.603zm11-12.612H58.264a2.585 2.585 0 0 1-2.603-2.602 2.585 2.585 0 0 1 2.603-2.603h26.122a2.585 2.585 0 0 1 2.603 2.603 2.585 2.585 0 0 1-2.603 2.602zm0-12.51H58.264a2.585 2.585 0 0 1-2.603-2.603 2.585 2.585 0 0 1 2.603-2.603h26.122c1.502 0 2.603 1.201 2.603 2.603s-1.101 2.602-2.603 2.602z" fill="#000000" opacity="1" data-original="#000000"></path></g></svg>