<svg xmlns="http://www.w3.org/2000/svg" version="1.1" xmlns:xlink="http://www.w3.org/1999/xlink" width="512" height="512" x="0" y="0" viewBox="0 0 24 24" style="enable-background:new 0 0 512 512" xml:space="preserve"><g><path d="M20 22.75H4c-1.52 0-2.75-1.23-2.75-2.75V9.13c0-.96.51-1.86 1.33-2.35l8-4.8c.87-.53 1.96-.53 2.83 0l8 4.8c.82.49 1.33 1.4 1.33 2.35V20c0 1.52-1.23 2.75-2.75 2.75zM12 3.09c-.22 0-.45.06-.64.18l-8 4.79c-.37.22-.61.63-.61 1.07V20c0 .69.56 1.25 1.25 1.25h16c.69 0 1.25-.56 1.25-1.25V9.13c0-.43-.23-.84-.61-1.07l-8-4.8c-.2-.12-.42-.18-.64-.18z" fill="#000000" opacity="1" data-original="#000000"></path><path d="M18 22.75H6c-.41 0-.75-.34-.75-.75 0-3.72 3.03-6.75 6.75-6.75s6.75 3.03 6.75 6.75c0 .41-.34.75-.75.75zm-11.2-1.5h10.39c-.36-2.54-2.56-4.5-5.2-4.5s-4.83 1.96-5.2 4.5zM12 14.75c-2.07 0-3.75-1.68-3.75-3.75S9.93 7.25 12 7.25s3.75 1.68 3.75 3.75-1.68 3.75-3.75 3.75zm0-6c-1.24 0-2.25 1.01-2.25 2.25s1.01 2.25 2.25 2.25 2.25-1.01 2.25-2.25S13.24 8.75 12 8.75z" fill="#000000" opacity="1" data-original="#000000"></path></g></svg>